<mxfile host="app.diagrams.net" agent="Mozilla/5.0 (Windows NT 10.0; Win64; x64) AppleWebKit/537.36 (KHTML, like Gecko) Chrome/132.0.0.0 Safari/537.36" version="26.0.10">
  <diagram name="Page-1" id="xykrU4mgONVHl3FANnY1">
    <mxGraphModel dx="1293" dy="521" grid="1" gridSize="10" guides="1" tooltips="1" connect="1" arrows="1" fold="1" page="1" pageScale="1" pageWidth="850" pageHeight="1100" math="0" shadow="0">
      <root>
        <mxCell id="0" />
        <mxCell id="1" parent="0" />
        <mxCell id="21AP0h_j6hQ6Abmygb0H-1" value="&lt;span style=&quot;color: rgb(171, 178, 191); font-family: SFMono-Regular, Menlo, Monaco, Consolas, &amp;quot;Liberation Mono&amp;quot;, &amp;quot;Courier New&amp;quot;, monospace; font-size: 16.8px; white-space: pre; background-color: rgb(30, 30, 30);&quot;&gt;most_common_byte(src_addr, size):&lt;br/&gt;  i = 0&lt;br/&gt;  while i &amp;lt;= size-1:&lt;br/&gt;    curr_byte = [src_addr + i]&lt;br/&gt;    [stack_base - curr_byte] += 1&lt;br/&gt;    i += 1&lt;br/&gt;&lt;br/&gt;  b = 0&lt;br/&gt;  max_freq = 0&lt;br/&gt;  max_freq_byte = 0&lt;br/&gt;  while b &amp;lt;= 0xff:&lt;br/&gt;    if [stack_base - b] &amp;gt; max_freq:&lt;br/&gt;      max_freq = [stack_base - b]&lt;br/&gt;      max_freq_byte = b&lt;br/&gt;    b += 1&lt;br/&gt;&lt;br/&gt;  return max_freq_byte&lt;/span&gt;" style="text;html=1;align=left;verticalAlign=middle;whiteSpace=wrap;rounded=0;" vertex="1" parent="1">
          <mxGeometry y="520" width="60" height="30" as="geometry" />
        </mxCell>
        <mxCell id="21AP0h_j6hQ6Abmygb0H-4" value="" style="edgeStyle=orthogonalEdgeStyle;rounded=0;orthogonalLoop=1;jettySize=auto;html=1;" edge="1" parent="1" source="21AP0h_j6hQ6Abmygb0H-2" target="21AP0h_j6hQ6Abmygb0H-3">
          <mxGeometry relative="1" as="geometry" />
        </mxCell>
        <mxCell id="21AP0h_j6hQ6Abmygb0H-2" value="function prolouge&lt;div&gt;set up the stack frame&lt;/div&gt;&lt;div&gt;&lt;br&gt;&lt;div&gt;&lt;div&gt;push rsp&lt;/div&gt;&lt;div&gt;mov rbp, rsp&lt;/div&gt;&lt;div&gt;sub rsp, 256&lt;/div&gt;&lt;div&gt;push r12&lt;/div&gt;&lt;div&gt;push r13&lt;/div&gt;&lt;div&gt;push r14&lt;/div&gt;&lt;/div&gt;&lt;/div&gt;" style="rounded=1;whiteSpace=wrap;html=1;" vertex="1" parent="1">
          <mxGeometry x="470" y="10" width="170" height="130" as="geometry" />
        </mxCell>
        <mxCell id="21AP0h_j6hQ6Abmygb0H-6" value="" style="edgeStyle=orthogonalEdgeStyle;rounded=0;orthogonalLoop=1;jettySize=auto;html=1;" edge="1" parent="1" source="21AP0h_j6hQ6Abmygb0H-3" target="21AP0h_j6hQ6Abmygb0H-5">
          <mxGeometry relative="1" as="geometry" />
        </mxCell>
        <mxCell id="21AP0h_j6hQ6Abmygb0H-3" value="&lt;div&gt;set up the iterator&lt;/div&gt;&lt;div&gt;r12 will be i&lt;/div&gt;&lt;div&gt;r13 will be curr_byte&lt;/div&gt;&lt;div&gt;&lt;br&gt;&lt;/div&gt;&lt;div&gt;xor r12, r12&lt;/div&gt;&lt;div&gt;xor r13, r13&lt;/div&gt;&lt;div&gt;xor rax, rax&lt;/div&gt;" style="whiteSpace=wrap;html=1;rounded=1;" vertex="1" parent="1">
          <mxGeometry x="495" y="180" width="125" height="110" as="geometry" />
        </mxCell>
        <mxCell id="21AP0h_j6hQ6Abmygb0H-8" value="" style="edgeStyle=orthogonalEdgeStyle;rounded=0;orthogonalLoop=1;jettySize=auto;html=1;" edge="1" parent="1" source="21AP0h_j6hQ6Abmygb0H-5" target="21AP0h_j6hQ6Abmygb0H-7">
          <mxGeometry relative="1" as="geometry" />
        </mxCell>
        <mxCell id="21AP0h_j6hQ6Abmygb0H-11" value="" style="edgeStyle=orthogonalEdgeStyle;rounded=0;orthogonalLoop=1;jettySize=auto;html=1;" edge="1" parent="1" source="21AP0h_j6hQ6Abmygb0H-5" target="21AP0h_j6hQ6Abmygb0H-10">
          <mxGeometry relative="1" as="geometry" />
        </mxCell>
        <mxCell id="21AP0h_j6hQ6Abmygb0H-5" value="first while loop comparison branch&lt;div&gt;&lt;br&gt;&lt;/div&gt;&lt;div&gt;dec rsi&lt;/div&gt;&lt;div&gt;while_Loop1:&lt;/div&gt;&lt;div&gt;cmp r12, rsi&lt;/div&gt;&lt;div&gt;ja section_Two&lt;/div&gt;" style="rhombus;whiteSpace=wrap;html=1;rounded=1;" vertex="1" parent="1">
          <mxGeometry x="469.38" y="360" width="176.25" height="180" as="geometry" />
        </mxCell>
        <mxCell id="21AP0h_j6hQ6Abmygb0H-7" value="&lt;div&gt;&lt;span style=&quot;background-color: transparent; color: light-dark(rgb(0, 0, 0), rgb(255, 255, 255));&quot;&gt;mov r13, [rdi+r12]&lt;/span&gt;&lt;/div&gt;&lt;div&gt;&lt;span style=&quot;background-color: transparent; color: light-dark(rgb(0, 0, 0), rgb(255, 255, 255));&quot;&gt;lea rax, [rdp-256]&lt;/span&gt;&lt;/div&gt;&lt;div&gt;&lt;span style=&quot;background-color: transparent; color: light-dark(rgb(0, 0, 0), rgb(255, 255, 255));&quot;&gt;add [rax], 1&lt;/span&gt;&lt;/div&gt;&lt;div&gt;inc r12&lt;/div&gt;&lt;div&gt;jmp while_Loop1&lt;/div&gt;" style="whiteSpace=wrap;html=1;rounded=1;" vertex="1" parent="1">
          <mxGeometry x="180" y="470" width="150" height="100" as="geometry" />
        </mxCell>
        <mxCell id="21AP0h_j6hQ6Abmygb0H-9" style="edgeStyle=orthogonalEdgeStyle;rounded=0;orthogonalLoop=1;jettySize=auto;html=1;entryX=0.429;entryY=0.953;entryDx=0;entryDy=0;entryPerimeter=0;" edge="1" parent="1" source="21AP0h_j6hQ6Abmygb0H-7" target="21AP0h_j6hQ6Abmygb0H-5">
          <mxGeometry relative="1" as="geometry">
            <Array as="points">
              <mxPoint x="300" y="550" />
              <mxPoint x="300" y="550" />
            </Array>
          </mxGeometry>
        </mxCell>
        <mxCell id="21AP0h_j6hQ6Abmygb0H-14" value="" style="edgeStyle=orthogonalEdgeStyle;rounded=0;orthogonalLoop=1;jettySize=auto;html=1;" edge="1" parent="1" source="21AP0h_j6hQ6Abmygb0H-10" target="21AP0h_j6hQ6Abmygb0H-13">
          <mxGeometry relative="1" as="geometry" />
        </mxCell>
        <mxCell id="21AP0h_j6hQ6Abmygb0H-10" value="reset the registers that will be used&lt;div&gt;r12 is b&lt;/div&gt;&lt;div&gt;r13 is max freq&lt;/div&gt;&lt;div&gt;r14 is max freq byte&lt;/div&gt;&lt;div&gt;rax is used for array calc&lt;br&gt;&lt;div&gt;&lt;br&gt;&lt;/div&gt;&lt;div&gt;section_Two:&lt;/div&gt;&lt;div&gt;xor r12, r12&lt;/div&gt;&lt;div&gt;xor r13, r13&lt;/div&gt;&lt;div&gt;xor r14, r14&lt;/div&gt;&lt;/div&gt;&lt;div&gt;xor rax, rax&lt;/div&gt;" style="whiteSpace=wrap;html=1;rounded=1;" vertex="1" parent="1">
          <mxGeometry x="467.51" y="620" width="174.99" height="190" as="geometry" />
        </mxCell>
        <mxCell id="21AP0h_j6hQ6Abmygb0H-12" style="edgeStyle=orthogonalEdgeStyle;rounded=0;orthogonalLoop=1;jettySize=auto;html=1;exitX=0.75;exitY=0;exitDx=0;exitDy=0;" edge="1" parent="1" source="21AP0h_j6hQ6Abmygb0H-1" target="21AP0h_j6hQ6Abmygb0H-1">
          <mxGeometry relative="1" as="geometry" />
        </mxCell>
        <mxCell id="21AP0h_j6hQ6Abmygb0H-16" value="" style="edgeStyle=orthogonalEdgeStyle;rounded=0;orthogonalLoop=1;jettySize=auto;html=1;" edge="1" parent="1" source="21AP0h_j6hQ6Abmygb0H-13">
          <mxGeometry relative="1" as="geometry">
            <mxPoint x="270" y="850" as="targetPoint" />
            <Array as="points">
              <mxPoint x="290" y="960" />
              <mxPoint x="290" y="850" />
            </Array>
          </mxGeometry>
        </mxCell>
        <mxCell id="21AP0h_j6hQ6Abmygb0H-25" value="" style="edgeStyle=orthogonalEdgeStyle;rounded=0;orthogonalLoop=1;jettySize=auto;html=1;" edge="1" parent="1" source="21AP0h_j6hQ6Abmygb0H-13" target="21AP0h_j6hQ6Abmygb0H-24">
          <mxGeometry relative="1" as="geometry" />
        </mxCell>
        <mxCell id="21AP0h_j6hQ6Abmygb0H-13" value="while_Loop2:&lt;div&gt;cmp r12, 256&lt;/div&gt;&lt;div&gt;ja epilouge&lt;/div&gt;" style="rhombus;whiteSpace=wrap;html=1;rounded=1;" vertex="1" parent="1">
          <mxGeometry x="457.51" y="860" width="195" height="215" as="geometry" />
        </mxCell>
        <mxCell id="21AP0h_j6hQ6Abmygb0H-19" value="" style="edgeStyle=orthogonalEdgeStyle;rounded=0;orthogonalLoop=1;jettySize=auto;html=1;" edge="1" parent="1" source="21AP0h_j6hQ6Abmygb0H-17" target="21AP0h_j6hQ6Abmygb0H-18">
          <mxGeometry relative="1" as="geometry" />
        </mxCell>
        <mxCell id="21AP0h_j6hQ6Abmygb0H-21" value="" style="edgeStyle=orthogonalEdgeStyle;rounded=0;orthogonalLoop=1;jettySize=auto;html=1;" edge="1" parent="1" source="21AP0h_j6hQ6Abmygb0H-17" target="21AP0h_j6hQ6Abmygb0H-20">
          <mxGeometry relative="1" as="geometry" />
        </mxCell>
        <mxCell id="21AP0h_j6hQ6Abmygb0H-17" value="&lt;div&gt;&lt;span style=&quot;background-color: transparent; color: light-dark(rgb(0, 0, 0), rgb(255, 255, 255));&quot;&gt;lea rax, [rdp-256]&lt;/span&gt;&lt;/div&gt;&lt;div&gt;cmp rax, r13&lt;/div&gt;&lt;div&gt;jbe skip&lt;/div&gt;" style="rhombus;whiteSpace=wrap;html=1;" vertex="1" parent="1">
          <mxGeometry x="150" y="780" width="120" height="140" as="geometry" />
        </mxCell>
        <mxCell id="21AP0h_j6hQ6Abmygb0H-23" style="edgeStyle=orthogonalEdgeStyle;rounded=0;orthogonalLoop=1;jettySize=auto;html=1;" edge="1" parent="1" source="21AP0h_j6hQ6Abmygb0H-18" target="21AP0h_j6hQ6Abmygb0H-13">
          <mxGeometry relative="1" as="geometry">
            <Array as="points">
              <mxPoint x="364" y="1080" />
              <mxPoint x="364" y="1000" />
            </Array>
          </mxGeometry>
        </mxCell>
        <mxCell id="21AP0h_j6hQ6Abmygb0H-18" value="skip:&lt;div&gt;inc r12&lt;/div&gt;&lt;div&gt;jmp while_Loop2&lt;/div&gt;" style="whiteSpace=wrap;html=1;" vertex="1" parent="1">
          <mxGeometry x="150" y="1050" width="120" height="60" as="geometry" />
        </mxCell>
        <mxCell id="21AP0h_j6hQ6Abmygb0H-22" style="edgeStyle=orthogonalEdgeStyle;rounded=0;orthogonalLoop=1;jettySize=auto;html=1;entryX=0;entryY=0.5;entryDx=0;entryDy=0;" edge="1" parent="1" source="21AP0h_j6hQ6Abmygb0H-20" target="21AP0h_j6hQ6Abmygb0H-18">
          <mxGeometry relative="1" as="geometry">
            <Array as="points">
              <mxPoint x="30" y="1080" />
            </Array>
          </mxGeometry>
        </mxCell>
        <mxCell id="21AP0h_j6hQ6Abmygb0H-20" value="mov r13, rax&lt;div&gt;mov r14, r12&lt;/div&gt;" style="whiteSpace=wrap;html=1;" vertex="1" parent="1">
          <mxGeometry x="-70" y="930" width="170" height="60" as="geometry" />
        </mxCell>
        <mxCell id="21AP0h_j6hQ6Abmygb0H-24" value="epilouge:&lt;div&gt;mov rax, r14&lt;/div&gt;&lt;div&gt;pop r14&lt;/div&gt;&lt;div&gt;pop r13&lt;/div&gt;&lt;div&gt;pop r12&lt;/div&gt;&lt;div&gt;mov rsp, rbp&lt;/div&gt;&lt;div&gt;pop rbp&lt;/div&gt;&lt;div&gt;ret&lt;/div&gt;" style="whiteSpace=wrap;html=1;rounded=1;" vertex="1" parent="1">
          <mxGeometry x="496.01" y="1232.5" width="144.99" height="127.5" as="geometry" />
        </mxCell>
      </root>
    </mxGraphModel>
  </diagram>
</mxfile>
